<?xml version="1.0" encoding="UTF-8" standalone="no"?>
<svg width="587px" height="460px" viewBox="0 0 587 460" version="1.1" xmlns="http://www.w3.org/2000/svg" xmlns:xlink="http://www.w3.org/1999/xlink">
    <!-- Generator: Sketch 50.2 (55047) - http://www.bohemiancoding.com/sketch -->
    <title>2. Service as a platform building block 02</title>
    <desc>Created with Sketch.</desc>
    <defs>
        <path d="M71.8279198,171.153846 C83.6538678,145.025616 96.501138,127.076898 110.36973,117.307692 C124.238323,107.538487 144.151592,102.410282 170.109537,101.923077 C184.241534,33.974359 226.637526,6.18461961e-14 297.297512,5.68434189e-14 C367.957498,5.68434189e-14 407.141672,39.1025641 414.850035,117.307692 C467.523842,121.153846 497.714927,145.512821 505.42329,190.384615 C513.131652,235.25641 492.576019,271.794872 443.756393,300 L52.5570145,300 C14.0152039,285.897436 -3.32861092,260.897436 0.525570145,225 C4.37975121,189.102564 28.1472011,171.153846 71.8279198,171.153846 Z" id="path-1"></path>
        <path d="M71.8279198,171.511057 C83.6538678,145.328295 96.501138,127.342117 110.36973,117.552522 C124.238323,107.762928 144.151592,102.62402 170.109537,102.135798 C184.241534,34.0452661 226.637526,6.18566373e-14 297.297512,5.68434189e-14 C367.957498,5.68434189e-14 407.141672,39.1841742 414.850035,117.552522 C467.523842,121.406704 497.714927,145.816517 505.42329,190.781963 C513.131652,235.747408 492.576019,272.362129 443.756393,300.626123 L52.5570145,300.626123 C14.0152039,286.494126 -3.32861092,261.441949 0.525570145,225.469592 C4.37975121,189.497236 28.1472011,171.511057 71.8279198,171.511057 Z" id="path-3"></path>
        <mask id="mask-4" maskContentUnits="userSpaceOnUse" maskUnits="objectBoundingBox" x="0" y="0" width="507" height="300.626123" fill="white">
            <use xlink:href="#path-3"></use>
        </mask>
        <mask id="mask-6" maskContentUnits="userSpaceOnUse" maskUnits="objectBoundingBox" x="0" y="0" width="507" height="300.626123" fill="white">
            <use xlink:href="#path-3"></use>
        </mask>
    </defs>
    <g id="2.-Service-as-a-platform-building-block-02" stroke="none" stroke-width="1" fill="none" fill-rule="evenodd">
        <g id="Lines" transform="translate(275.000000, 212.000000)" opacity="0.4" stroke="#555854">
            <path d="M43,0.5 L43,44.7324625" id="Line" stroke-linecap="square"></path>
            <path d="M43.1809027,45.0157283 L0.513332716,68.7799445" id="Line" stroke-linecap="round"></path>
            <path d="M43.1809027,45.0157283 L86.5,69.5" id="Line" stroke-linecap="round"></path>
        </g>
        <g id="Data-collection-" transform="translate(234.000000, 186.000000)">
            <path d="M40.2049512,10.7055439 L64.4296902,24.5691048 C66.2972393,25.6378834 67.4494779,27.6248818 67.4494779,29.7766316 L67.4494779,57.4125576 C67.4494779,59.5643074 66.2972393,61.5513058 64.4296902,62.6200844 L40.2049512,76.4836453 C38.3586283,77.5402763 36.0908496,77.5402763 34.2445267,76.4836453 L10.0197877,62.6200844 C8.15223861,61.5513058 7,59.5643074 7,57.4125576 L7,29.7766316 C7,27.6248818 8.15223861,25.6378834 10.0197877,24.5691048 L34.2445267,10.7055439 C36.0908496,9.64891284 38.3586283,9.64891284 40.2049512,10.7055439 Z" id="Polygon" stroke="#555854" stroke-width="1.5"></path>
            <path d="M40.7671216,1.71658112 L72.0829061,19.7043556 C73.9458023,20.7744024 75.0944272,22.7587986 75.0944272,24.9071427 L75.0944272,64.3025163 L37.7786427,85.7366884 L0.462858152,64.3025163 L0.462858152,21.4341721 L34.7901638,1.71658112 C36.6407056,0.653630616 38.9165798,0.653630616 40.7671216,1.71658112 Z" id="Polygon" stroke="#FAAE42" stroke-width="2"></path>
            <path d="M75.0944272,64.3025163 L40.7671216,84.0201073 C38.9165798,85.0830578 36.6407056,85.0830578 34.7901638,84.0201073 L3.47437925,66.0323329 C1.61148311,64.9622861 0.462858152,62.9778898 0.462858152,60.8295457 L0.462858152,21.4341721" id="Polygon" stroke="#555854" stroke-width="8" opacity="0.87" stroke-linecap="round"></path>
            <path d="M15.72,33.108 C15.72,33.5320021 15.649334,33.9213316 15.508,34.276 C15.366666,34.6306684 15.1680013,34.9359987 14.912,35.192 C14.6559987,35.4480013 14.3480018,35.646666 13.988,35.788 C13.6279982,35.929334 13.2293355,36 12.792,36 L10.584,36 L10.584,30.216 L12.792,30.216 C13.2293355,30.216 13.6279982,30.2873326 13.988,30.43 C14.3480018,30.5726674 14.6559987,30.7713321 14.912,31.026 C15.1680013,31.2806679 15.366666,31.5853316 15.508,31.94 C15.649334,32.2946684 15.72,32.6839979 15.72,33.108 Z M14.62,33.108 C14.62,32.7906651 14.5773338,32.5060013 14.492,32.254 C14.4066662,32.0019987 14.2853341,31.7886675 14.128,31.614 C13.9706659,31.4393325 13.7793345,31.3053338 13.554,31.212 C13.3286655,31.1186662 13.0746681,31.072 12.792,31.072 L11.668,31.072 L11.668,35.144 L12.792,35.144 C13.0746681,35.144 13.3286655,35.0973338 13.554,35.004 C13.7793345,34.9106662 13.9706659,34.7766675 14.128,34.602 C14.2853341,34.4273325 14.4066662,34.2140013 14.492,33.962 C14.5773338,33.7099987 14.62,33.4253349 14.62,33.108 Z M21.444,36 L20.612,36 C20.5186662,36 20.4420003,35.9766669 20.382,35.93 C20.3219997,35.8833331 20.2786668,35.8253337 20.252,35.756 L19.82,34.576 L17.424,34.576 L16.992,35.756 C16.9706666,35.8173336 16.928667,35.8733331 16.866,35.924 C16.803333,35.9746669 16.7266671,36 16.636,36 L15.8,36 L18.072,30.216 L19.172,30.216 L21.444,36 Z M17.7,33.816 L19.544,33.816 L18.84,31.892 C18.8079998,31.8066662 18.7726669,31.7060006 18.734,31.59 C18.6953331,31.4739994 18.6573335,31.3480007 18.62,31.212 C18.5826665,31.3480007 18.5460002,31.4746661 18.51,31.592 C18.4739998,31.7093339 18.4386668,31.8119996 18.404,31.9 L17.7,33.816 Z M25.528,30.216 L25.528,31.1 L23.788,31.1 L23.788,36 L22.712,36 L22.712,31.1 L20.964,31.1 L20.964,30.216 L25.528,30.216 Z M30.708,36 L29.876,36 C29.7826662,36 29.7060003,35.9766669 29.646,35.93 C29.5859997,35.8833331 29.5426668,35.8253337 29.516,35.756 L29.084,34.576 L26.688,34.576 L26.256,35.756 C26.2346666,35.8173336 26.192667,35.8733331 26.13,35.924 C26.067333,35.9746669 25.9906671,36 25.9,36 L25.064,36 L27.336,30.216 L28.436,30.216 L30.708,36 Z M26.964,33.816 L28.808,33.816 L28.104,31.892 C28.0719998,31.8066662 28.0366669,31.7060006 27.998,31.59 C27.9593331,31.4739994 27.9213335,31.3480007 27.884,31.212 C27.8466665,31.3480007 27.8100002,31.4746661 27.774,31.592 C27.7379998,31.7093339 27.7026668,31.8119996 27.668,31.9 L26.964,33.816 Z M14.56,44.636 C14.618667,44.636 14.6693331,44.6586664 14.712,44.704 L15.136,45.164 C14.9013322,45.4546681 14.6126684,45.6773326 14.27,45.832 C13.9273316,45.9866674 13.5160024,46.064 13.036,46.064 C12.6066645,46.064 12.2206684,45.9906674 11.878,45.844 C11.5353316,45.6973326 11.2426679,45.4933346 11,45.232 C10.7573321,44.9706654 10.571334,44.6586685 10.442,44.296 C10.312666,43.9333315 10.248,43.5373355 10.248,43.108 C10.248,42.6733312 10.3199993,42.2753351 10.464,41.914 C10.6080007,41.5526649 10.8106654,41.2413346 11.072,40.98 C11.3333346,40.7186654 11.6459982,40.5153341 12.01,40.37 C12.3740018,40.2246659 12.7759978,40.152 13.216,40.152 C13.6453355,40.152 14.0206651,40.220666 14.342,40.358 C14.6633349,40.495334 14.9386655,40.6773322 15.168,40.904 L14.808,41.404 C14.7866666,41.4360002 14.7593335,41.4639999 14.726,41.488 C14.6926665,41.5120001 14.646667,41.524 14.588,41.524 C14.5266664,41.524 14.4640003,41.5000002 14.4,41.452 C14.3359997,41.4039998 14.2546672,41.3520003 14.156,41.296 C14.0573328,41.2399997 13.9326674,41.1880002 13.782,41.14 C13.6313326,41.0919998 13.4400012,41.068 13.208,41.068 C12.9359986,41.068 12.6860011,41.1153329 12.458,41.21 C12.2299989,41.3046671 12.0340008,41.4399991 11.87,41.616 C11.7059992,41.7920009 11.5780005,42.0059987 11.486,42.258 C11.3939995,42.5100013 11.348,42.7933318 11.348,43.108 C11.348,43.433335 11.3939995,43.7226654 11.486,43.976 C11.5780005,44.2293346 11.7026659,44.4426658 11.86,44.616 C12.0173341,44.7893342 12.2026656,44.9219995 12.416,45.014 C12.6293344,45.1060005 12.8586654,45.152 13.104,45.152 C13.2506674,45.152 13.3833327,45.1440001 13.502,45.128 C13.6206673,45.1119999 13.7299995,45.0866668 13.83,45.052 C13.9300005,45.0173332 14.0246662,44.9726669 14.114,44.918 C14.2033338,44.8633331 14.2919996,44.7960004 14.38,44.716 C14.4066668,44.6919999 14.4346665,44.6726667 14.464,44.658 C14.4933335,44.6433333 14.5253332,44.636 14.56,44.636 Z M21.496,43.108 C21.496,43.5320021 21.425334,43.9246649 21.284,44.286 C21.142666,44.6473351 20.9440013,44.9599987 20.688,45.224 C20.4319987,45.4880013 20.1240018,45.6939993 19.764,45.842 C19.4039982,45.9900007 19.0053355,46.064 18.568,46.064 C18.1306645,46.064 17.7313351,45.9900007 17.37,45.842 C17.0086649,45.6939993 16.6993346,45.4880013 16.442,45.224 C16.1846654,44.9599987 15.985334,44.6473351 15.844,44.286 C15.702666,43.9246649 15.632,43.5320021 15.632,43.108 C15.632,42.6839979 15.702666,42.2913351 15.844,41.93 C15.985334,41.5686649 16.1846654,41.2560013 16.442,40.992 C16.6993346,40.7279987 17.0086649,40.5220007 17.37,40.374 C17.7313351,40.2259993 18.1306645,40.152 18.568,40.152 C19.0053355,40.152 19.4039982,40.2266659 19.764,40.376 C20.1240018,40.5253341 20.4319987,40.731332 20.688,40.994 C20.9440013,41.256668 21.142666,41.5686649 21.284,41.93 C21.425334,42.2913351 21.496,42.6839979 21.496,43.108 Z M20.392,43.108 C20.392,42.7906651 20.3500004,42.5060013 20.266,42.254 C20.1819996,42.0019987 20.0613341,41.7880009 19.904,41.612 C19.7466659,41.4359991 19.5553345,41.3013338 19.33,41.208 C19.1046655,41.1146662 18.8506681,41.068 18.568,41.068 C18.2853319,41.068 18.0306678,41.1146662 17.804,41.208 C17.5773322,41.3013338 17.3846675,41.4359991 17.226,41.612 C17.0673325,41.7880009 16.9453338,42.0019987 16.86,42.254 C16.7746662,42.5060013 16.732,42.7906651 16.732,43.108 C16.732,43.4253349 16.7746662,43.7099987 16.86,43.962 C16.9453338,44.2140013 17.0673325,44.4273325 17.226,44.602 C17.3846675,44.7766675 17.5773322,44.9106662 17.804,45.004 C18.0306678,45.0973338 18.2853319,45.144 18.568,45.144 C18.8506681,45.144 19.1046655,45.0973338 19.33,45.004 C19.5553345,44.9106662 19.7466659,44.7766675 19.904,44.602 C20.0613341,44.4273325 20.1819996,44.2140013 20.266,43.962 C20.3500004,43.7099987 20.392,43.4253349 20.392,43.108 Z M23.42,45.112 L25.736,45.112 L25.736,46 L22.344,46 L22.344,40.216 L23.42,40.216 L23.42,45.112 Z M27.556,45.112 L29.872,45.112 L29.872,46 L26.48,46 L26.48,40.216 L27.556,40.216 L27.556,45.112 Z M34.264,40.216 L34.264,41.072 L31.7,41.072 L31.7,42.676 L33.72,42.676 L33.72,43.504 L31.7,43.504 L31.7,45.14 L34.264,45.14 L34.264,46 L30.616,46 L30.616,40.216 L34.264,40.216 Z M39.172,44.636 C39.230667,44.636 39.2813331,44.6586664 39.324,44.704 L39.748,45.164 C39.5133322,45.4546681 39.2246684,45.6773326 38.882,45.832 C38.5393316,45.9866674 38.1280024,46.064 37.648,46.064 C37.2186645,46.064 36.8326684,45.9906674 36.49,45.844 C36.1473316,45.6973326 35.8546679,45.4933346 35.612,45.232 C35.3693321,44.9706654 35.183334,44.6586685 35.054,44.296 C34.924666,43.9333315 34.86,43.5373355 34.86,43.108 C34.86,42.6733312 34.9319993,42.2753351 35.076,41.914 C35.2200007,41.5526649 35.4226654,41.2413346 35.684,40.98 C35.9453346,40.7186654 36.2579982,40.5153341 36.622,40.37 C36.9860018,40.2246659 37.3879978,40.152 37.828,40.152 C38.2573355,40.152 38.6326651,40.220666 38.954,40.358 C39.2753349,40.495334 39.5506655,40.6773322 39.78,40.904 L39.42,41.404 C39.3986666,41.4360002 39.3713335,41.4639999 39.338,41.488 C39.3046665,41.5120001 39.258667,41.524 39.2,41.524 C39.1386664,41.524 39.0760003,41.5000002 39.012,41.452 C38.9479997,41.4039998 38.8666672,41.3520003 38.768,41.296 C38.6693328,41.2399997 38.5446674,41.1880002 38.394,41.14 C38.2433326,41.0919998 38.0520012,41.068 37.82,41.068 C37.5479986,41.068 37.2980011,41.1153329 37.07,41.21 C36.8419989,41.3046671 36.6460008,41.4399991 36.482,41.616 C36.3179992,41.7920009 36.1900005,42.0059987 36.098,42.258 C36.0059995,42.5100013 35.96,42.7933318 35.96,43.108 C35.96,43.433335 36.0059995,43.7226654 36.098,43.976 C36.1900005,44.2293346 36.3146659,44.4426658 36.472,44.616 C36.6293341,44.7893342 36.8146656,44.9219995 37.028,45.014 C37.2413344,45.1060005 37.4706654,45.152 37.716,45.152 C37.8626674,45.152 37.9953327,45.1440001 38.114,45.128 C38.2326673,45.1119999 38.3419995,45.0866668 38.442,45.052 C38.5420005,45.0173332 38.6366662,44.9726669 38.726,44.918 C38.8153338,44.8633331 38.9039996,44.7960004 38.992,44.716 C39.0186668,44.6919999 39.0466665,44.6726667 39.076,44.658 C39.1053335,44.6433333 39.1373332,44.636 39.172,44.636 Z M44.636,40.216 L44.636,41.1 L42.896,41.1 L42.896,46 L41.82,46 L41.82,41.1 L40.072,41.1 L40.072,40.216 L44.636,40.216 Z M46.532,46 L45.452,46 L45.452,40.216 L46.532,40.216 L46.532,46 Z M53.38,43.108 C53.38,43.5320021 53.309334,43.9246649 53.168,44.286 C53.026666,44.6473351 52.8280013,44.9599987 52.572,45.224 C52.3159987,45.4880013 52.0080018,45.6939993 51.648,45.842 C51.2879982,45.9900007 50.8893355,46.064 50.452,46.064 C50.0146645,46.064 49.6153351,45.9900007 49.254,45.842 C48.8926649,45.6939993 48.5833346,45.4880013 48.326,45.224 C48.0686654,44.9599987 47.869334,44.6473351 47.728,44.286 C47.586666,43.9246649 47.516,43.5320021 47.516,43.108 C47.516,42.6839979 47.586666,42.2913351 47.728,41.93 C47.869334,41.5686649 48.0686654,41.2560013 48.326,40.992 C48.5833346,40.7279987 48.8926649,40.5220007 49.254,40.374 C49.6153351,40.2259993 50.0146645,40.152 50.452,40.152 C50.8893355,40.152 51.2879982,40.2266659 51.648,40.376 C52.0080018,40.5253341 52.3159987,40.731332 52.572,40.994 C52.8280013,41.256668 53.026666,41.5686649 53.168,41.93 C53.309334,42.2913351 53.38,42.6839979 53.38,43.108 Z M52.276,43.108 C52.276,42.7906651 52.2340004,42.5060013 52.15,42.254 C52.0659996,42.0019987 51.9453341,41.7880009 51.788,41.612 C51.6306659,41.4359991 51.4393345,41.3013338 51.214,41.208 C50.9886655,41.1146662 50.7346681,41.068 50.452,41.068 C50.1693319,41.068 49.9146678,41.1146662 49.688,41.208 C49.4613322,41.3013338 49.2686675,41.4359991 49.11,41.612 C48.9513325,41.7880009 48.8293338,42.0019987 48.744,42.254 C48.6586662,42.5060013 48.616,42.7906651 48.616,43.108 C48.616,43.4253349 48.6586662,43.7099987 48.744,43.962 C48.8293338,44.2140013 48.9513325,44.4273325 49.11,44.602 C49.2686675,44.7766675 49.4613322,44.9106662 49.688,45.004 C49.9146678,45.0973338 50.1693319,45.144 50.452,45.144 C50.7346681,45.144 50.9886655,45.0973338 51.214,45.004 C51.4393345,44.9106662 51.6306659,44.7766675 51.788,44.602 C51.9453341,44.4273325 52.0659996,44.2140013 52.15,43.962 C52.2340004,43.7099987 52.276,43.4253349 52.276,43.108 Z M54.792,40.216 C54.8400002,40.216 54.8799998,40.218 54.912,40.222 C54.9440002,40.226 54.9726665,40.2339999 54.998,40.246 C55.0233335,40.2580001 55.0479999,40.2753332 55.072,40.298 C55.0960001,40.3206668 55.1226665,40.3506665 55.152,40.388 L58.188,44.256 C58.1773333,44.1626662 58.17,44.0713338 58.166,43.982 C58.162,43.8926662 58.16,43.8093337 58.16,43.732 L58.16,40.216 L59.108,40.216 L59.108,46 L58.552,46 C58.4666662,46 58.3960003,45.9866668 58.34,45.96 C58.2839997,45.9333332 58.2293336,45.8853337 58.176,45.816 L55.152,41.964 C55.16,42.0493338 55.166,42.1339996 55.17,42.218 C55.174,42.3020004 55.176,42.3786663 55.176,42.448 L55.176,46 L54.228,46 L54.228,40.216 L54.792,40.216 Z M13.684,51.268 C13.6546665,51.326667 13.6206669,51.3679999 13.582,51.392 C13.5433331,51.4160001 13.4973336,51.428 13.444,51.428 C13.3906664,51.428 13.330667,51.4073335 13.264,51.366 C13.197333,51.3246665 13.1186671,51.2786669 13.028,51.228 C12.9373329,51.1773331 12.8313339,51.1313335 12.71,51.09 C12.5886661,51.0486665 12.4453342,51.028 12.28,51.028 C12.1306659,51.028 12.0006672,51.0459998 11.89,51.082 C11.7793328,51.1180002 11.6860004,51.1679997 11.61,51.232 C11.5339996,51.2960003 11.4773335,51.3726662 11.44,51.462 C11.4026665,51.5513338 11.384,51.6493328 11.384,51.756 C11.384,51.8920007 11.4219996,52.0053329 11.498,52.096 C11.5740004,52.1866671 11.674666,52.2639997 11.8,52.328 C11.925334,52.3920003 12.0679992,52.4493331 12.228,52.5 C12.3880008,52.5506669 12.5513325,52.6046664 12.718,52.662 C12.8846675,52.7193336 13.0479992,52.7859996 13.208,52.862 C13.3680008,52.9380004 13.510666,53.0339994 13.636,53.15 C13.761334,53.2660006 13.8619996,53.4079992 13.938,53.576 C14.0140004,53.7440008 14.052,53.9479988 14.052,54.188 C14.052,54.4493346 14.0073338,54.6939989 13.918,54.922 C13.8286662,55.1500011 13.6980009,55.3486658 13.526,55.518 C13.3539991,55.6873342 13.1440012,55.8206662 12.896,55.918 C12.6479988,56.0153338 12.3640016,56.064 12.044,56.064 C11.8599991,56.064 11.6786676,56.0460002 11.5,56.01 C11.3213324,55.9739998 11.1500008,55.922667 10.986,55.856 C10.8219992,55.789333 10.6686674,55.7093338 10.526,55.616 C10.3833326,55.5226662 10.2560006,55.4186672 10.144,55.304 L10.456,54.788 C10.4853335,54.7506665 10.5206665,54.7193335 10.562,54.694 C10.6033335,54.6686665 10.6493331,54.656 10.7,54.656 C10.766667,54.656 10.8386663,54.6833331 10.916,54.738 C10.9933337,54.7926669 11.0846661,54.853333 11.19,54.92 C11.2953339,54.986667 11.4193326,55.0473331 11.562,55.102 C11.7046674,55.1566669 11.875999,55.184 12.076,55.184 C12.3826682,55.184 12.6199992,55.1113341 12.788,54.966 C12.9560008,54.8206659 13.04,54.6120014 13.04,54.34 C13.04,54.1879992 13.0020004,54.0640005 12.926,53.968 C12.8499996,53.8719995 12.749334,53.7913337 12.624,53.726 C12.498666,53.6606663 12.3560008,53.6053336 12.196,53.56 C12.0359992,53.5146664 11.8733342,53.4653336 11.708,53.412 C11.5426658,53.3586664 11.3800008,53.294667 11.22,53.22 C11.0599992,53.145333 10.917334,53.0480006 10.792,52.928 C10.666666,52.8079994 10.5660004,52.6580009 10.49,52.478 C10.4139996,52.2979991 10.376,52.0760013 10.376,51.812 C10.376,51.6013323 10.4179996,51.396001 10.502,51.196 C10.5860004,50.995999 10.7086659,50.8186674 10.87,50.664 C11.0313341,50.5093326 11.2293322,50.3853338 11.464,50.292 C11.6986678,50.1986662 11.9666652,50.152 12.268,50.152 C12.609335,50.152 12.9239986,50.2053328 13.212,50.312 C13.5000014,50.4186672 13.7453323,50.567999 13.948,50.76 L13.684,51.268 Z M18.524,50.216 L18.524,51.072 L15.96,51.072 L15.96,52.676 L17.98,52.676 L17.98,53.504 L15.96,53.504 L15.96,55.14 L18.524,55.14 L18.524,56 L14.876,56 L14.876,50.216 L18.524,50.216 Z M20.568,53.74 L20.568,56 L19.492,56 L19.492,50.216 L21.256,50.216 C21.6506686,50.216 21.9886653,50.2566663 22.27,50.338 C22.5513347,50.4193337 22.7819991,50.5333326 22.962,50.68 C23.1420009,50.8266674 23.2739996,51.001999 23.358,51.206 C23.4420004,51.410001 23.484,51.6346654 23.484,51.88 C23.484,52.0746676 23.4553336,52.2586658 23.398,52.432 C23.3406664,52.6053342 23.2580005,52.762666 23.15,52.904 C23.0419995,53.045334 22.9086675,53.1693328 22.75,53.276 C22.5913325,53.3826672 22.4106677,53.4679997 22.208,53.532 C22.3440007,53.6093337 22.4613328,53.7199993 22.56,53.864 L24.008,56 L23.04,56 C22.9466662,56 22.8673337,55.9813335 22.802,55.944 C22.7366663,55.9066665 22.6813336,55.8533337 22.636,55.784 L21.42,53.932 C21.3746664,53.8626663 21.3246669,53.8133335 21.27,53.784 C21.2153331,53.7546665 21.1346672,53.74 21.028,53.74 L20.568,53.74 Z M20.568,52.968 L21.24,52.968 C21.4426677,52.968 21.6193326,52.9426669 21.77,52.892 C21.9206674,52.8413331 22.0446662,52.7713338 22.142,52.682 C22.2393338,52.5926662 22.3119998,52.4866673 22.36,52.364 C22.4080002,52.2413327 22.432,52.1066674 22.432,51.96 C22.432,51.6666652 22.3353343,51.4413341 22.142,51.284 C21.9486657,51.1266659 21.6533353,51.048 21.256,51.048 L20.568,51.048 L20.568,52.968 Z M24.128,50.216 L24.996,50.216 C25.0893338,50.216 25.165333,50.2386664 25.224,50.284 C25.282667,50.3293336 25.3266665,50.3879996 25.356,50.46 L26.716,53.988 C26.7613336,54.1026672 26.8046665,54.228666 26.846,54.366 C26.8873335,54.503334 26.9266665,54.6479992 26.964,54.8 C27.0253336,54.4933318 27.1013329,54.2226678 27.192,53.988 L28.548,50.46 C28.5720001,50.3986664 28.6146664,50.3426669 28.676,50.292 C28.7373336,50.2413331 28.8133329,50.216 28.904,50.216 L29.772,50.216 L27.436,56 L26.464,56 L24.128,50.216 Z M31.588,56 L30.508,56 L30.508,50.216 L31.588,50.216 L31.588,56 Z M36.864,54.636 C36.922667,54.636 36.9733331,54.6586664 37.016,54.704 L37.44,55.164 C37.2053322,55.4546681 36.9166684,55.6773326 36.574,55.832 C36.2313316,55.9866674 35.8200024,56.064 35.34,56.064 C34.9106645,56.064 34.5246684,55.9906674 34.182,55.844 C33.8393316,55.6973326 33.5466679,55.4933346 33.304,55.232 C33.0613321,54.9706654 32.875334,54.6586685 32.746,54.296 C32.616666,53.9333315 32.552,53.5373355 32.552,53.108 C32.552,52.6733312 32.6239993,52.2753351 32.768,51.914 C32.9120007,51.5526649 33.1146654,51.2413346 33.376,50.98 C33.6373346,50.7186654 33.9499982,50.5153341 34.314,50.37 C34.6780018,50.2246659 35.0799978,50.152 35.52,50.152 C35.9493355,50.152 36.3246651,50.220666 36.646,50.358 C36.9673349,50.495334 37.2426655,50.6773322 37.472,50.904 L37.112,51.404 C37.0906666,51.4360002 37.0633335,51.4639999 37.03,51.488 C36.9966665,51.5120001 36.950667,51.524 36.892,51.524 C36.8306664,51.524 36.7680003,51.5000002 36.704,51.452 C36.6399997,51.4039998 36.5586672,51.3520003 36.46,51.296 C36.3613328,51.2399997 36.2366674,51.1880002 36.086,51.14 C35.9353326,51.0919998 35.7440012,51.068 35.512,51.068 C35.2399986,51.068 34.9900011,51.1153329 34.762,51.21 C34.5339989,51.3046671 34.3380008,51.4399991 34.174,51.616 C34.0099992,51.7920009 33.8820005,52.0059987 33.79,52.258 C33.6979995,52.5100013 33.652,52.7933318 33.652,53.108 C33.652,53.433335 33.6979995,53.7226654 33.79,53.976 C33.8820005,54.2293346 34.0066659,54.4426658 34.164,54.616 C34.3213341,54.7893342 34.5066656,54.9219995 34.72,55.014 C34.9333344,55.1060005 35.1626654,55.152 35.408,55.152 C35.5546674,55.152 35.6873327,55.1440001 35.806,55.128 C35.9246673,55.1119999 36.0339995,55.0866668 36.134,55.052 C36.2340005,55.0173332 36.3286662,54.9726669 36.418,54.918 C36.5073338,54.8633331 36.5959996,54.7960004 36.684,54.716 C36.7106668,54.6919999 36.7386665,54.6726667 36.768,54.658 C36.7973335,54.6433333 36.8293332,54.636 36.864,54.636 Z M41.9,50.216 L41.9,51.072 L39.336,51.072 L39.336,52.676 L41.356,52.676 L41.356,53.504 L39.336,53.504 L39.336,55.14 L41.9,55.14 L41.9,56 L38.252,56 L38.252,50.216 L41.9,50.216 Z" id="DATA-COLLECTION-SERV" fill="#555854"></path>
        </g>
        <g id="Data-Visualization" transform="translate(281.000000, 270.000000)">
            <path d="M39.2115472,10.1370292 L65.4362861,25.145169 C66.6813189,25.857688 67.4494779,27.1823536 67.4494779,28.6168535 L67.4494779,58.5723357 C67.4494779,60.0068356 66.6813189,61.3315012 65.4362861,62.0440202 L39.2115472,77.05216 C37.9806652,77.7565806 36.4688127,77.7565806 35.2379308,77.05216 L9.01319181,62.0440202 C7.76815907,61.3315012 7,60.0068356 7,58.5723357 L7,28.6168535 C7,27.1823536 7.76815907,25.857688 9.01319181,25.145169 L35.2379308,10.1370292 C36.4688127,9.43260856 37.9806652,9.43260856 39.2115472,10.1370292 Z" id="Polygon" stroke="#555854" stroke-width="1.5" fill="#555854"></path>
            <path d="M40.7671216,1.71658112 L72.0829061,19.7043556 C73.9458023,20.7744024 75.0944272,22.7587986 75.0944272,24.9071427 L75.0944272,60.8295457 C75.0944272,62.9778898 73.9458023,64.9622861 72.0829061,66.0323329 L40.7671216,84.0201073 C38.9165798,85.0830578 36.6407056,85.0830578 34.7901638,84.0201073 L3.47437925,66.0323329 C1.61148311,64.9622861 0.462858152,62.9778898 0.462858152,60.8295457 L0.462858152,24.9071427 C0.462858152,22.7587986 1.61148311,20.7744024 3.47437925,19.7043556 L34.7901638,1.71658112 C36.6407056,0.653630616 38.9165798,0.653630616 40.7671216,1.71658112 Z" id="Polygon" stroke="#555854" stroke-width="2"></path>
            <path d="M75.0944272,64.3025163 L40.7671216,84.0201073 C38.9165798,85.0830578 36.6407056,85.0830578 34.7901638,84.0201073 L3.47437925,66.0323329 C1.61148311,64.9622861 0.462858152,62.9778898 0.462858152,60.8295457 L0.462858152,21.4341721" id="Polygon" stroke="#FAAE42" stroke-width="8" stroke-linecap="round" transform="translate(37.778643, 53.585430) scale(-1, 1) translate(-37.778643, -53.585430) "></path>
            <path d="M12.72,33.108 C12.72,33.5320021 12.649334,33.9213316 12.508,34.276 C12.366666,34.6306684 12.1680013,34.9359987 11.912,35.192 C11.6559987,35.4480013 11.3480018,35.646666 10.988,35.788 C10.6279982,35.929334 10.2293355,36 9.792,36 L7.584,36 L7.584,30.216 L9.792,30.216 C10.2293355,30.216 10.6279982,30.2873326 10.988,30.43 C11.3480018,30.5726674 11.6559987,30.7713321 11.912,31.026 C12.1680013,31.2806679 12.366666,31.5853316 12.508,31.94 C12.649334,32.2946684 12.72,32.6839979 12.72,33.108 Z M11.62,33.108 C11.62,32.7906651 11.5773338,32.5060013 11.492,32.254 C11.4066662,32.0019987 11.2853341,31.7886675 11.128,31.614 C10.9706659,31.4393325 10.7793345,31.3053338 10.554,31.212 C10.3286655,31.1186662 10.0746681,31.072 9.792,31.072 L8.668,31.072 L8.668,35.144 L9.792,35.144 C10.0746681,35.144 10.3286655,35.0973338 10.554,35.004 C10.7793345,34.9106662 10.9706659,34.7766675 11.128,34.602 C11.2853341,34.4273325 11.4066662,34.2140013 11.492,33.962 C11.5773338,33.7099987 11.62,33.4253349 11.62,33.108 Z M18.444,36 L17.612,36 C17.5186662,36 17.4420003,35.9766669 17.382,35.93 C17.3219997,35.8833331 17.2786668,35.8253337 17.252,35.756 L16.82,34.576 L14.424,34.576 L13.992,35.756 C13.9706666,35.8173336 13.928667,35.8733331 13.866,35.924 C13.803333,35.9746669 13.7266671,36 13.636,36 L12.8,36 L15.072,30.216 L16.172,30.216 L18.444,36 Z M14.7,33.816 L16.544,33.816 L15.84,31.892 C15.8079998,31.8066662 15.7726669,31.7060006 15.734,31.59 C15.6953331,31.4739994 15.6573335,31.3480007 15.62,31.212 C15.5826665,31.3480007 15.5460002,31.4746661 15.51,31.592 C15.4739998,31.7093339 15.4386668,31.8119996 15.404,31.9 L14.7,33.816 Z M22.528,30.216 L22.528,31.1 L20.788,31.1 L20.788,36 L19.712,36 L19.712,31.1 L17.964,31.1 L17.964,30.216 L22.528,30.216 Z M27.708,36 L26.876,36 C26.7826662,36 26.7060003,35.9766669 26.646,35.93 C26.5859997,35.8833331 26.5426668,35.8253337 26.516,35.756 L26.084,34.576 L23.688,34.576 L23.256,35.756 C23.2346666,35.8173336 23.192667,35.8733331 23.13,35.924 C23.067333,35.9746669 22.9906671,36 22.9,36 L22.064,36 L24.336,30.216 L25.436,30.216 L27.708,36 Z M23.964,33.816 L25.808,33.816 L25.104,31.892 C25.0719998,31.8066662 25.0366669,31.7060006 24.998,31.59 C24.9593331,31.4739994 24.9213335,31.3480007 24.884,31.212 C24.8466665,31.3480007 24.8100002,31.4746661 24.774,31.592 C24.7379998,31.7093339 24.7026668,31.8119996 24.668,31.9 L23.964,33.816 Z M7.016,40.216 L7.884,40.216 C7.9773338,40.216 8.05333304,40.2386664 8.112,40.284 C8.17066696,40.3293336 8.21466652,40.3879996 8.244,40.46 L9.604,43.988 C9.64933356,44.1026672 9.69266646,44.228666 9.734,44.366 C9.77533354,44.503334 9.81466648,44.6479992 9.852,44.8 C9.91333364,44.4933318 9.98933288,44.2226678 10.08,43.988 L11.436,40.46 C11.4600001,40.3986664 11.5026664,40.3426669 11.564,40.292 C11.6253336,40.2413331 11.7013329,40.216 11.792,40.216 L12.66,40.216 L10.324,46 L9.352,46 L7.016,40.216 Z M14.476,46 L13.396,46 L13.396,40.216 L14.476,40.216 L14.476,46 Z M18.876,41.268 C18.8466665,41.326667 18.8126669,41.3679999 18.774,41.392 C18.7353331,41.4160001 18.6893336,41.428 18.636,41.428 C18.5826664,41.428 18.522667,41.4073335 18.456,41.366 C18.389333,41.3246665 18.3106671,41.2786669 18.22,41.228 C18.1293329,41.1773331 18.0233339,41.1313335 17.902,41.09 C17.7806661,41.0486665 17.6373342,41.028 17.472,41.028 C17.3226659,41.028 17.1926672,41.0459998 17.082,41.082 C16.9713328,41.1180002 16.8780004,41.1679997 16.802,41.232 C16.7259996,41.2960003 16.6693335,41.3726662 16.632,41.462 C16.5946665,41.5513338 16.576,41.6493328 16.576,41.756 C16.576,41.8920007 16.6139996,42.0053329 16.69,42.096 C16.7660004,42.1866671 16.866666,42.2639997 16.992,42.328 C17.117334,42.3920003 17.2599992,42.4493331 17.42,42.5 C17.5800008,42.5506669 17.7433325,42.6046664 17.91,42.662 C18.0766675,42.7193336 18.2399992,42.7859996 18.4,42.862 C18.5600008,42.9380004 18.702666,43.0339994 18.828,43.15 C18.953334,43.2660006 19.0539996,43.4079992 19.13,43.576 C19.2060004,43.7440008 19.244,43.9479988 19.244,44.188 C19.244,44.4493346 19.1993338,44.6939989 19.11,44.922 C19.0206662,45.1500011 18.8900009,45.3486658 18.718,45.518 C18.5459991,45.6873342 18.3360012,45.8206662 18.088,45.918 C17.8399988,46.0153338 17.5560016,46.064 17.236,46.064 C17.0519991,46.064 16.8706676,46.0460002 16.692,46.01 C16.5133324,45.9739998 16.3420008,45.922667 16.178,45.856 C16.0139992,45.789333 15.8606674,45.7093338 15.718,45.616 C15.5753326,45.5226662 15.4480006,45.4186672 15.336,45.304 L15.648,44.788 C15.6773335,44.7506665 15.7126665,44.7193335 15.754,44.694 C15.7953335,44.6686665 15.8413331,44.656 15.892,44.656 C15.958667,44.656 16.0306663,44.6833331 16.108,44.738 C16.1853337,44.7926669 16.2766661,44.853333 16.382,44.92 C16.4873339,44.986667 16.6113326,45.0473331 16.754,45.102 C16.8966674,45.1566669 17.067999,45.184 17.268,45.184 C17.5746682,45.184 17.8119992,45.1113341 17.98,44.966 C18.1480008,44.8206659 18.232,44.6120014 18.232,44.34 C18.232,44.1879992 18.1940004,44.0640005 18.118,43.968 C18.0419996,43.8719995 17.941334,43.7913337 17.816,43.726 C17.690666,43.6606663 17.5480008,43.6053336 17.388,43.56 C17.2279992,43.5146664 17.0653342,43.4653336 16.9,43.412 C16.7346658,43.3586664 16.5720008,43.294667 16.412,43.22 C16.2519992,43.145333 16.109334,43.0480006 15.984,42.928 C15.858666,42.8079994 15.7580004,42.6580009 15.682,42.478 C15.6059996,42.2979991 15.568,42.0760013 15.568,41.812 C15.568,41.6013323 15.6099996,41.396001 15.694,41.196 C15.7780004,40.995999 15.9006659,40.8186674 16.062,40.664 C16.2233341,40.5093326 16.4213322,40.3853338 16.656,40.292 C16.8906678,40.1986662 17.1586652,40.152 17.46,40.152 C17.801335,40.152 18.1159986,40.2053328 18.404,40.312 C18.6920014,40.4186672 18.9373323,40.567999 19.14,40.76 L18.876,41.268 Z M22.396,45.132 C22.604001,45.132 22.7899992,45.0973337 22.954,45.028 C23.1180008,44.9586663 23.2566661,44.861334 23.37,44.736 C23.4833339,44.610666 23.5699997,44.4586676 23.63,44.28 C23.6900003,44.1013324 23.72,43.9013344 23.72,43.68 L23.72,40.216 L24.796,40.216 L24.796,43.68 C24.796,44.0240017 24.7406672,44.3419985 24.63,44.634 C24.5193328,44.9260015 24.360001,45.1779989 24.152,45.39 C23.943999,45.6020011 23.6920015,45.7673327 23.396,45.886 C23.0999985,46.0046673 22.7666685,46.064 22.396,46.064 C22.0253315,46.064 21.6920015,46.0046673 21.396,45.886 C21.0999985,45.7673327 20.8486677,45.6020011 20.642,45.39 C20.4353323,45.1779989 20.2766672,44.9260015 20.166,44.634 C20.0553328,44.3419985 20,44.0240017 20,43.68 L20,40.216 L21.076,40.216 L21.076,43.676 C21.076,43.8973344 21.1059997,44.0973324 21.166,44.276 C21.2260003,44.4546676 21.3119994,44.6073327 21.424,44.734 C21.5360006,44.8606673 21.6739992,44.9586663 21.838,45.028 C22.0020008,45.0973337 22.187999,45.132 22.396,45.132 Z M30.768,46 L29.936,46 C29.8426662,46 29.7660003,45.9766669 29.706,45.93 C29.6459997,45.8833331 29.6026668,45.8253337 29.576,45.756 L29.144,44.576 L26.748,44.576 L26.316,45.756 C26.2946666,45.8173336 26.252667,45.8733331 26.19,45.924 C26.127333,45.9746669 26.0506671,46 25.96,46 L25.124,46 L27.396,40.216 L28.496,40.216 L30.768,46 Z M27.024,43.816 L28.868,43.816 L28.164,41.892 C28.1319998,41.8066662 28.0966669,41.7060006 28.058,41.59 C28.0193331,41.4739994 27.9813335,41.3480007 27.944,41.212 C27.9066665,41.3480007 27.8700002,41.4746661 27.834,41.592 C27.7979998,41.7093339 27.7626668,41.8119996 27.728,41.9 L27.024,43.816 Z M32.44,45.112 L34.756,45.112 L34.756,46 L31.364,46 L31.364,40.216 L32.44,40.216 L32.44,45.112 Z M36.712,46 L35.632,46 L35.632,40.216 L36.712,40.216 L36.712,46 Z M42.144,40.216 L42.144,40.612 C42.144,40.7346673 42.1093337,40.8466662 42.04,40.948 L39.072,45.14 L42.072,45.14 L42.072,46 L37.676,46 L37.676,45.576 C37.676,45.5226664 37.6853332,45.4713336 37.704,45.422 C37.7226668,45.3726664 37.7466665,45.3266669 37.776,45.284 L40.752,41.072 L37.864,41.072 L37.864,40.216 L42.144,40.216 Z M48.032,46 L47.2,46 C47.1066662,46 47.0300003,45.9766669 46.97,45.93 C46.9099997,45.8833331 46.8666668,45.8253337 46.84,45.756 L46.408,44.576 L44.012,44.576 L43.58,45.756 C43.5586666,45.8173336 43.516667,45.8733331 43.454,45.924 C43.391333,45.9746669 43.3146671,46 43.224,46 L42.388,46 L44.66,40.216 L45.76,40.216 L48.032,46 Z M44.288,43.816 L46.132,43.816 L45.428,41.892 C45.3959998,41.8066662 45.3606669,41.7060006 45.322,41.59 C45.2833331,41.4739994 45.2453335,41.3480007 45.208,41.212 C45.1706665,41.3480007 45.1340002,41.4746661 45.098,41.592 C45.0619998,41.7093339 45.0266668,41.8119996 44.992,41.9 L44.288,43.816 Z M52.116,40.216 L52.116,41.1 L50.376,41.1 L50.376,46 L49.3,46 L49.3,41.1 L47.552,41.1 L47.552,40.216 L52.116,40.216 Z M54.012,46 L52.932,46 L52.932,40.216 L54.012,40.216 L54.012,46 Z M60.86,43.108 C60.86,43.5320021 60.789334,43.9246649 60.648,44.286 C60.506666,44.6473351 60.3080013,44.9599987 60.052,45.224 C59.7959987,45.4880013 59.4880018,45.6939993 59.128,45.842 C58.7679982,45.9900007 58.3693355,46.064 57.932,46.064 C57.4946645,46.064 57.0953351,45.9900007 56.734,45.842 C56.3726649,45.6939993 56.0633346,45.4880013 55.806,45.224 C55.5486654,44.9599987 55.349334,44.6473351 55.208,44.286 C55.066666,43.9246649 54.996,43.5320021 54.996,43.108 C54.996,42.6839979 55.066666,42.2913351 55.208,41.93 C55.349334,41.5686649 55.5486654,41.2560013 55.806,40.992 C56.0633346,40.7279987 56.3726649,40.5220007 56.734,40.374 C57.0953351,40.2259993 57.4946645,40.152 57.932,40.152 C58.3693355,40.152 58.7679982,40.2266659 59.128,40.376 C59.4880018,40.5253341 59.7959987,40.731332 60.052,40.994 C60.3080013,41.256668 60.506666,41.5686649 60.648,41.93 C60.789334,42.2913351 60.86,42.6839979 60.86,43.108 Z M59.756,43.108 C59.756,42.7906651 59.7140004,42.5060013 59.63,42.254 C59.5459996,42.0019987 59.4253341,41.7880009 59.268,41.612 C59.1106659,41.4359991 58.9193345,41.3013338 58.694,41.208 C58.4686655,41.1146662 58.2146681,41.068 57.932,41.068 C57.6493319,41.068 57.3946678,41.1146662 57.168,41.208 C56.9413322,41.3013338 56.7486675,41.4359991 56.59,41.612 C56.4313325,41.7880009 56.3093338,42.0019987 56.224,42.254 C56.1386662,42.5060013 56.096,42.7906651 56.096,43.108 C56.096,43.4253349 56.1386662,43.7099987 56.224,43.962 C56.3093338,44.2140013 56.4313325,44.4273325 56.59,44.602 C56.7486675,44.7766675 56.9413322,44.9106662 57.168,45.004 C57.3946678,45.0973338 57.6493319,45.144 57.932,45.144 C58.2146681,45.144 58.4686655,45.0973338 58.694,45.004 C58.9193345,44.9106662 59.1106659,44.7766675 59.268,44.602 C59.4253341,44.4273325 59.5459996,44.2140013 59.63,43.962 C59.7140004,43.7099987 59.756,43.4253349 59.756,43.108 Z M62.272,40.216 C62.3200002,40.216 62.3599998,40.218 62.392,40.222 C62.4240002,40.226 62.4526665,40.2339999 62.478,40.246 C62.5033335,40.2580001 62.5279999,40.2753332 62.552,40.298 C62.5760001,40.3206668 62.6026665,40.3506665 62.632,40.388 L65.668,44.256 C65.6573333,44.1626662 65.65,44.0713338 65.646,43.982 C65.642,43.8926662 65.64,43.8093337 65.64,43.732 L65.64,40.216 L66.588,40.216 L66.588,46 L66.032,46 C65.9466662,46 65.8760003,45.9866668 65.82,45.96 C65.7639997,45.9333332 65.7093336,45.8853337 65.656,45.816 L62.632,41.964 C62.64,42.0493338 62.646,42.1339996 62.65,42.218 C62.654,42.3020004 62.656,42.3786663 62.656,42.448 L62.656,46 L61.708,46 L61.708,40.216 L62.272,40.216 Z M10.684,51.268 C10.6546665,51.326667 10.6206669,51.3679999 10.582,51.392 C10.5433331,51.4160001 10.4973336,51.428 10.444,51.428 C10.3906664,51.428 10.330667,51.4073335 10.264,51.366 C10.197333,51.3246665 10.1186671,51.2786669 10.028,51.228 C9.93733288,51.1773331 9.83133394,51.1313335 9.71,51.09 C9.58866606,51.0486665 9.44533416,51.028 9.28,51.028 C9.13066592,51.028 9.00066722,51.0459998 8.89,51.082 C8.77933278,51.1180002 8.68600038,51.1679997 8.61,51.232 C8.53399962,51.2960003 8.47733352,51.3726662 8.44,51.462 C8.40266648,51.5513338 8.384,51.6493328 8.384,51.756 C8.384,51.8920007 8.42199962,52.0053329 8.498,52.096 C8.57400038,52.1866671 8.67466604,52.2639997 8.8,52.328 C8.92533396,52.3920003 9.0679992,52.4493331 9.228,52.5 C9.3880008,52.5506669 9.5513325,52.6046664 9.718,52.662 C9.8846675,52.7193336 10.0479992,52.7859996 10.208,52.862 C10.3680008,52.9380004 10.510666,53.0339994 10.636,53.15 C10.761334,53.2660006 10.8619996,53.4079992 10.938,53.576 C11.0140004,53.7440008 11.052,53.9479988 11.052,54.188 C11.052,54.4493346 11.0073338,54.6939989 10.918,54.922 C10.8286662,55.1500011 10.6980009,55.3486658 10.526,55.518 C10.3539991,55.6873342 10.1440012,55.8206662 9.896,55.918 C9.64799876,56.0153338 9.3640016,56.064 9.044,56.064 C8.85999908,56.064 8.67866756,56.0460002 8.5,56.01 C8.32133244,55.9739998 8.15000082,55.922667 7.986,55.856 C7.82199918,55.789333 7.66866738,55.7093338 7.526,55.616 C7.38333262,55.5226662 7.25600056,55.4186672 7.144,55.304 L7.456,54.788 C7.48533348,54.7506665 7.52066646,54.7193335 7.562,54.694 C7.60333354,54.6686665 7.64933308,54.656 7.7,54.656 C7.766667,54.656 7.83866628,54.6833331 7.916,54.738 C7.99333372,54.7926669 8.08466614,54.853333 8.19,54.92 C8.29533386,54.986667 8.41933262,55.0473331 8.562,55.102 C8.70466738,55.1566669 8.875999,55.184 9.076,55.184 C9.3826682,55.184 9.61999916,55.1113341 9.788,54.966 C9.95600084,54.8206659 10.04,54.6120014 10.04,54.34 C10.04,54.1879992 10.0020004,54.0640005 9.926,53.968 C9.84999962,53.8719995 9.74933396,53.7913337 9.624,53.726 C9.49866604,53.6606663 9.3560008,53.6053336 9.196,53.56 C9.0359992,53.5146664 8.87333416,53.4653336 8.708,53.412 C8.54266584,53.3586664 8.3800008,53.294667 8.22,53.22 C8.0599992,53.145333 7.91733396,53.0480006 7.792,52.928 C7.66666604,52.8079994 7.56600038,52.6580009 7.49,52.478 C7.41399962,52.2979991 7.376,52.0760013 7.376,51.812 C7.376,51.6013323 7.41799958,51.396001 7.502,51.196 C7.58600042,50.995999 7.70866586,50.8186674 7.87,50.664 C8.03133414,50.5093326 8.22933216,50.3853338 8.464,50.292 C8.69866784,50.1986662 8.96666516,50.152 9.268,50.152 C9.60933504,50.152 9.92399856,50.2053328 10.212,50.312 C10.5000014,50.4186672 10.7453323,50.567999 10.948,50.76 L10.684,51.268 Z M15.524,50.216 L15.524,51.072 L12.96,51.072 L12.96,52.676 L14.98,52.676 L14.98,53.504 L12.96,53.504 L12.96,55.14 L15.524,55.14 L15.524,56 L11.876,56 L11.876,50.216 L15.524,50.216 Z M17.568,53.74 L17.568,56 L16.492,56 L16.492,50.216 L18.256,50.216 C18.6506686,50.216 18.9886653,50.2566663 19.27,50.338 C19.5513347,50.4193337 19.7819991,50.5333326 19.962,50.68 C20.1420009,50.8266674 20.2739996,51.001999 20.358,51.206 C20.4420004,51.410001 20.484,51.6346654 20.484,51.88 C20.484,52.0746676 20.4553336,52.2586658 20.398,52.432 C20.3406664,52.6053342 20.2580005,52.762666 20.15,52.904 C20.0419995,53.045334 19.9086675,53.1693328 19.75,53.276 C19.5913325,53.3826672 19.4106677,53.4679997 19.208,53.532 C19.3440007,53.6093337 19.4613328,53.7199993 19.56,53.864 L21.008,56 L20.04,56 C19.9466662,56 19.8673337,55.9813335 19.802,55.944 C19.7366663,55.9066665 19.6813336,55.8533337 19.636,55.784 L18.42,53.932 C18.3746664,53.8626663 18.3246669,53.8133335 18.27,53.784 C18.2153331,53.7546665 18.1346672,53.74 18.028,53.74 L17.568,53.74 Z M17.568,52.968 L18.24,52.968 C18.4426677,52.968 18.6193326,52.9426669 18.77,52.892 C18.9206674,52.8413331 19.0446662,52.7713338 19.142,52.682 C19.2393338,52.5926662 19.3119998,52.4866673 19.36,52.364 C19.4080002,52.2413327 19.432,52.1066674 19.432,51.96 C19.432,51.6666652 19.3353343,51.4413341 19.142,51.284 C18.9486657,51.1266659 18.6533353,51.048 18.256,51.048 L17.568,51.048 L17.568,52.968 Z M21.128,50.216 L21.996,50.216 C22.0893338,50.216 22.165333,50.2386664 22.224,50.284 C22.282667,50.3293336 22.3266665,50.3879996 22.356,50.46 L23.716,53.988 C23.7613336,54.1026672 23.8046665,54.228666 23.846,54.366 C23.8873335,54.503334 23.9266665,54.6479992 23.964,54.8 C24.0253336,54.4933318 24.1013329,54.2226678 24.192,53.988 L25.548,50.46 C25.5720001,50.3986664 25.6146664,50.3426669 25.676,50.292 C25.7373336,50.2413331 25.8133329,50.216 25.904,50.216 L26.772,50.216 L24.436,56 L23.464,56 L21.128,50.216 Z M28.588,56 L27.508,56 L27.508,50.216 L28.588,50.216 L28.588,56 Z M33.864,54.636 C33.922667,54.636 33.9733331,54.6586664 34.016,54.704 L34.44,55.164 C34.2053322,55.4546681 33.9166684,55.6773326 33.574,55.832 C33.2313316,55.9866674 32.8200024,56.064 32.34,56.064 C31.9106645,56.064 31.5246684,55.9906674 31.182,55.844 C30.8393316,55.6973326 30.5466679,55.4933346 30.304,55.232 C30.0613321,54.9706654 29.875334,54.6586685 29.746,54.296 C29.616666,53.9333315 29.552,53.5373355 29.552,53.108 C29.552,52.6733312 29.6239993,52.2753351 29.768,51.914 C29.9120007,51.5526649 30.1146654,51.2413346 30.376,50.98 C30.6373346,50.7186654 30.9499982,50.5153341 31.314,50.37 C31.6780018,50.2246659 32.0799978,50.152 32.52,50.152 C32.9493355,50.152 33.3246651,50.220666 33.646,50.358 C33.9673349,50.495334 34.2426655,50.6773322 34.472,50.904 L34.112,51.404 C34.0906666,51.4360002 34.0633335,51.4639999 34.03,51.488 C33.9966665,51.5120001 33.950667,51.524 33.892,51.524 C33.8306664,51.524 33.7680003,51.5000002 33.704,51.452 C33.6399997,51.4039998 33.5586672,51.3520003 33.46,51.296 C33.3613328,51.2399997 33.2366674,51.1880002 33.086,51.14 C32.9353326,51.0919998 32.7440012,51.068 32.512,51.068 C32.2399986,51.068 31.9900011,51.1153329 31.762,51.21 C31.5339989,51.3046671 31.3380008,51.4399991 31.174,51.616 C31.0099992,51.7920009 30.8820005,52.0059987 30.79,52.258 C30.6979995,52.5100013 30.652,52.7933318 30.652,53.108 C30.652,53.433335 30.6979995,53.7226654 30.79,53.976 C30.8820005,54.2293346 31.0066659,54.4426658 31.164,54.616 C31.3213341,54.7893342 31.5066656,54.9219995 31.72,55.014 C31.9333344,55.1060005 32.1626654,55.152 32.408,55.152 C32.5546674,55.152 32.6873327,55.1440001 32.806,55.128 C32.9246673,55.1119999 33.0339995,55.0866668 33.134,55.052 C33.2340005,55.0173332 33.3286662,54.9726669 33.418,54.918 C33.5073338,54.8633331 33.5959996,54.7960004 33.684,54.716 C33.7106668,54.6919999 33.7386665,54.6726667 33.768,54.658 C33.7973335,54.6433333 33.8293332,54.636 33.864,54.636 Z M38.9,50.216 L38.9,51.072 L36.336,51.072 L36.336,52.676 L38.356,52.676 L38.356,53.504 L36.336,53.504 L36.336,55.14 L38.9,55.14 L38.9,56 L35.252,56 L35.252,50.216 L38.9,50.216 Z" id="DATA-VISUALIZATION-S" fill="#FFFFFF"></path>
        </g>
        <g id="Data-Managment" transform="translate(328.000000, 186.000000)">
            <path d="M40.2049512,10.7055439 L64.4296902,24.5691048 C66.2972393,25.6378834 67.4494779,27.6248818 67.4494779,29.7766316 L67.4494779,57.4125576 C67.4494779,59.5643074 66.2972393,61.5513058 64.4296902,62.6200844 L40.2049512,76.4836453 C38.3586283,77.5402763 36.0908496,77.5402763 34.2445267,76.4836453 L10.0197877,62.6200844 C8.15223861,61.5513058 7,59.5643074 7,57.4125576 L7,29.7766316 C7,27.6248818 8.15223861,25.6378834 10.0197877,24.5691048 L34.2445267,10.7055439 C36.0908496,9.64891284 38.3586283,9.64891284 40.2049512,10.7055439 Z" id="Polygon" fill="#FAAE42"></path>
            <path d="M37.7786427,0 L75.0944272,21.4341721 L75.0944272,64.3025163 L40.7671216,84.0201073 C38.9165798,85.0830578 36.6407056,85.0830578 34.7901638,84.0201073 L3.47437925,66.0323329 C1.61148311,64.9622861 0.462858152,62.9778898 0.462858152,60.8295457 L0.462858152,21.4341721 L37.7786427,0 Z" id="Polygon" stroke="#FAAE42" stroke-width="2"></path>
            <path d="M75.0944272,42.6954334 L40.7106966,61.9540649 C38.8891297,62.9743407 36.6681557,62.9743407 34.8465887,61.9540649 L3.5308042,44.4138171 C1.636207,43.3526364 0.462858152,41.3505678 0.462858152,39.1790239 L0.462858152,0.893631568" id="Polygon" stroke="#555854" stroke-width="8" opacity="0.870335821" stroke-linecap="round" transform="translate(37.778643, 32.244983) scale(-1, -1) translate(-37.778643, -32.244983) "></path>
            <path d="M15.72,33.108 C15.72,33.5320021 15.649334,33.9213316 15.508,34.276 C15.366666,34.6306684 15.1680013,34.9359987 14.912,35.192 C14.6559987,35.4480013 14.3480018,35.646666 13.988,35.788 C13.6279982,35.929334 13.2293355,36 12.792,36 L10.584,36 L10.584,30.216 L12.792,30.216 C13.2293355,30.216 13.6279982,30.2873326 13.988,30.43 C14.3480018,30.5726674 14.6559987,30.7713321 14.912,31.026 C15.1680013,31.2806679 15.366666,31.5853316 15.508,31.94 C15.649334,32.2946684 15.72,32.6839979 15.72,33.108 Z M14.62,33.108 C14.62,32.7906651 14.5773338,32.5060013 14.492,32.254 C14.4066662,32.0019987 14.2853341,31.7886675 14.128,31.614 C13.9706659,31.4393325 13.7793345,31.3053338 13.554,31.212 C13.3286655,31.1186662 13.0746681,31.072 12.792,31.072 L11.668,31.072 L11.668,35.144 L12.792,35.144 C13.0746681,35.144 13.3286655,35.0973338 13.554,35.004 C13.7793345,34.9106662 13.9706659,34.7766675 14.128,34.602 C14.2853341,34.4273325 14.4066662,34.2140013 14.492,33.962 C14.5773338,33.7099987 14.62,33.4253349 14.62,33.108 Z M20.212,30.216 L20.212,31.072 L17.648,31.072 L17.648,32.676 L19.668,32.676 L19.668,33.504 L17.648,33.504 L17.648,35.14 L20.212,35.14 L20.212,36 L16.564,36 L16.564,30.216 L20.212,30.216 Z M20.576,30.216 L21.444,30.216 C21.5373338,30.216 21.613333,30.2386664 21.672,30.284 C21.730667,30.3293336 21.7746665,30.3879996 21.804,30.46 L23.164,33.988 C23.2093336,34.1026672 23.2526665,34.228666 23.294,34.366 C23.3353335,34.503334 23.3746665,34.6479992 23.412,34.8 C23.4733336,34.4933318 23.5493329,34.2226678 23.64,33.988 L24.996,30.46 C25.0200001,30.3986664 25.0626664,30.3426669 25.124,30.292 C25.1853336,30.2413331 25.2613329,30.216 25.352,30.216 L26.22,30.216 L23.884,36 L22.912,36 L20.576,30.216 Z M28.036,36 L26.956,36 L26.956,30.216 L28.036,30.216 L28.036,36 Z M33.312,34.636 C33.370667,34.636 33.4213331,34.6586664 33.464,34.704 L33.888,35.164 C33.6533322,35.4546681 33.3646684,35.6773326 33.022,35.832 C32.6793316,35.9866674 32.2680024,36.064 31.788,36.064 C31.3586645,36.064 30.9726684,35.9906674 30.63,35.844 C30.2873316,35.6973326 29.9946679,35.4933346 29.752,35.232 C29.5093321,34.9706654 29.323334,34.6586685 29.194,34.296 C29.064666,33.9333315 29,33.5373355 29,33.108 C29,32.6733312 29.0719993,32.2753351 29.216,31.914 C29.3600007,31.5526649 29.5626654,31.2413346 29.824,30.98 C30.0853346,30.7186654 30.3979982,30.5153341 30.762,30.37 C31.1260018,30.2246659 31.5279978,30.152 31.968,30.152 C32.3973355,30.152 32.7726651,30.220666 33.094,30.358 C33.4153349,30.495334 33.6906655,30.6773322 33.92,30.904 L33.56,31.404 C33.5386666,31.4360002 33.5113335,31.4639999 33.478,31.488 C33.4446665,31.5120001 33.398667,31.524 33.34,31.524 C33.2786664,31.524 33.2160003,31.5000002 33.152,31.452 C33.0879997,31.4039998 33.0066672,31.3520003 32.908,31.296 C32.8093328,31.2399997 32.6846674,31.1880002 32.534,31.14 C32.3833326,31.0919998 32.1920012,31.068 31.96,31.068 C31.6879986,31.068 31.4380011,31.1153329 31.21,31.21 C30.9819989,31.3046671 30.7860008,31.4399991 30.622,31.616 C30.4579992,31.7920009 30.3300005,32.0059987 30.238,32.258 C30.1459995,32.5100013 30.1,32.7933318 30.1,33.108 C30.1,33.433335 30.1459995,33.7226654 30.238,33.976 C30.3300005,34.2293346 30.4546659,34.4426658 30.612,34.616 C30.7693341,34.7893342 30.9546656,34.9219995 31.168,35.014 C31.3813344,35.1060005 31.6106654,35.152 31.856,35.152 C32.0026674,35.152 32.1353327,35.1440001 32.254,35.128 C32.3726673,35.1119999 32.4819995,35.0866668 32.582,35.052 C32.6820005,35.0173332 32.7766662,34.9726669 32.866,34.918 C32.9553338,34.8633331 33.0439996,34.7960004 33.132,34.716 C33.1586668,34.6919999 33.1866665,34.6726667 33.216,34.658 C33.2453335,34.6433333 33.2773332,34.636 33.312,34.636 Z M38.348,30.216 L38.348,31.072 L35.784,31.072 L35.784,32.676 L37.804,32.676 L37.804,33.504 L35.784,33.504 L35.784,35.14 L38.348,35.14 L38.348,36 L34.7,36 L34.7,30.216 L38.348,30.216 Z M13.488,43.6 C13.5333336,43.6853338 13.5753331,43.7739995 13.614,43.866 C13.6526669,43.9580005 13.6906665,44.0506662 13.728,44.144 C13.7653335,44.0479995 13.8039998,43.9533338 13.844,43.86 C13.8840002,43.7666662 13.9266664,43.6773338 13.972,43.592 L15.684,40.388 C15.7053334,40.3479998 15.7273332,40.3160001 15.75,40.292 C15.7726668,40.2679999 15.7979999,40.2506667 15.826,40.24 C15.8540001,40.2293333 15.8853332,40.2226667 15.92,40.22 C15.9546668,40.2173333 15.9959998,40.216 16.044,40.216 L16.856,40.216 L16.856,46 L15.908,46 L15.908,42.264 C15.908,42.1946663 15.91,42.1186671 15.914,42.036 C15.918,41.9533329 15.924,41.8693338 15.932,41.784 L14.184,45.064 C14.1439998,45.138667 14.0920003,45.1966665 14.028,45.238 C13.9639997,45.2793335 13.8893338,45.3 13.804,45.3 L13.656,45.3 C13.5706662,45.3 13.4960003,45.2793335 13.432,45.238 C13.3679997,45.1966665 13.3160002,45.138667 13.276,45.064 L11.504,41.772 C11.5146667,41.8600004 11.522,41.9459996 11.526,42.03 C11.53,42.1140004 11.532,42.1919996 11.532,42.264 L11.532,46 L10.584,46 L10.584,40.216 L11.396,40.216 C11.4440002,40.216 11.4853332,40.2173333 11.52,40.22 C11.5546668,40.2226667 11.5859999,40.2293333 11.614,40.24 C11.6420001,40.2506667 11.6679999,40.2679999 11.692,40.292 C11.7160001,40.3160001 11.7386666,40.3479998 11.76,40.388 L13.488,43.6 Z M23.108,46 L22.276,46 C22.1826662,46 22.1060003,45.9766669 22.046,45.93 C21.9859997,45.8833331 21.9426668,45.8253337 21.916,45.756 L21.484,44.576 L19.088,44.576 L18.656,45.756 C18.6346666,45.8173336 18.592667,45.8733331 18.53,45.924 C18.467333,45.9746669 18.3906671,46 18.3,46 L17.464,46 L19.736,40.216 L20.836,40.216 L23.108,46 Z M19.364,43.816 L21.208,43.816 L20.504,41.892 C20.4719998,41.8066662 20.4366669,41.7060006 20.398,41.59 C20.3593331,41.4739994 20.3213335,41.3480007 20.284,41.212 C20.2466665,41.3480007 20.2100002,41.4746661 20.174,41.592 C20.1379998,41.7093339 20.1026668,41.8119996 20.068,41.9 L19.364,43.816 Z M24.268,40.216 C24.3160002,40.216 24.3559998,40.218 24.388,40.222 C24.4200002,40.226 24.4486665,40.2339999 24.474,40.246 C24.4993335,40.2580001 24.5239999,40.2753332 24.548,40.298 C24.5720001,40.3206668 24.5986665,40.3506665 24.628,40.388 L27.664,44.256 C27.6533333,44.1626662 27.646,44.0713338 27.642,43.982 C27.638,43.8926662 27.636,43.8093337 27.636,43.732 L27.636,40.216 L28.584,40.216 L28.584,46 L28.028,46 C27.9426662,46 27.8720003,45.9866668 27.816,45.96 C27.7599997,45.9333332 27.7053336,45.8853337 27.652,45.816 L24.628,41.964 C24.636,42.0493338 24.642,42.1339996 24.646,42.218 C24.65,42.3020004 24.652,42.3786663 24.652,42.448 L24.652,46 L23.704,46 L23.704,40.216 L24.268,40.216 Z M34.836,46 L34.004,46 C33.9106662,46 33.8340003,45.9766669 33.774,45.93 C33.7139997,45.8833331 33.6706668,45.8253337 33.644,45.756 L33.212,44.576 L30.816,44.576 L30.384,45.756 C30.3626666,45.8173336 30.320667,45.8733331 30.258,45.924 C30.195333,45.9746669 30.1186671,46 30.028,46 L29.192,46 L31.464,40.216 L32.564,40.216 L34.836,46 Z M31.092,43.816 L32.936,43.816 L32.232,41.892 C32.1999998,41.8066662 32.1646669,41.7060006 32.126,41.59 C32.0873331,41.4739994 32.0493335,41.3480007 32.012,41.212 C31.9746665,41.3480007 31.9380002,41.4746661 31.902,41.592 C31.8659998,41.7093339 31.8306668,41.8119996 31.796,41.9 L31.092,43.816 Z M37.884,45.208 C38.1266679,45.208 38.3379991,45.1860002 38.518,45.142 C38.6980009,45.0979998 38.8693325,45.0373337 39.032,44.96 L39.032,43.908 L38.308,43.908 C38.2386663,43.908 38.1840002,43.8886669 38.144,43.85 C38.1039998,43.8113331 38.084,43.7640003 38.084,43.708 L38.084,43.1 L40.008,43.1 L40.008,45.44 C39.8613326,45.5466672 39.7086675,45.6393329 39.55,45.718 C39.3913325,45.7966671 39.2220009,45.8613331 39.042,45.912 C38.8619991,45.9626669 38.6693344,46.0006665 38.464,46.026 C38.2586656,46.0513335 38.0373345,46.064 37.8,46.064 C37.3786646,46.064 36.9906684,45.9906674 36.636,45.844 C36.2813316,45.6973326 35.974668,45.4933346 35.716,45.232 C35.457332,44.9706654 35.2553341,44.6586685 35.11,44.296 C34.9646659,43.9333315 34.892,43.5373355 34.892,43.108 C34.892,42.6733312 34.962666,42.2746685 35.104,41.912 C35.245334,41.5493315 35.4459987,41.2373346 35.706,40.976 C35.9660013,40.7146654 36.2813315,40.5120007 36.652,40.368 C37.0226685,40.2239993 37.4386644,40.152 37.9,40.152 C38.3720024,40.152 38.7806649,40.2219993 39.126,40.362 C39.4713351,40.5020007 39.7639988,40.6839989 40.004,40.908 L39.692,41.396 C39.6306664,41.4946672 39.5493338,41.544 39.448,41.544 C39.3839997,41.544 39.318667,41.5226669 39.252,41.48 C39.1666662,41.4293331 39.0793338,41.3786669 38.99,41.328 C38.9006662,41.2773331 38.8020005,41.2333335 38.694,41.196 C38.5859995,41.1586665 38.4646673,41.1280001 38.33,41.104 C38.1953327,41.0799999 38.0400009,41.068 37.864,41.068 C37.5786652,41.068 37.3206678,41.1159995 37.09,41.212 C36.8593322,41.3080005 36.6626675,41.4453324 36.5,41.624 C36.3373325,41.8026676 36.2120004,42.0173321 36.124,42.268 C36.0359996,42.5186679 35.992,42.7986651 35.992,43.108 C35.992,43.441335 36.0386662,43.7379987 36.132,43.998 C36.2253338,44.2580013 36.3559992,44.4773324 36.524,44.656 C36.6920008,44.8346676 36.8919988,44.9713329 37.124,45.066 C37.3560012,45.1606671 37.609332,45.208 37.884,45.208 Z M43.916,43.6 C43.9613336,43.6853338 44.0033331,43.7739995 44.042,43.866 C44.0806669,43.9580005 44.1186665,44.0506662 44.156,44.144 C44.1933335,44.0479995 44.2319998,43.9533338 44.272,43.86 C44.3120002,43.7666662 44.3546664,43.6773338 44.4,43.592 L46.112,40.388 C46.1333334,40.3479998 46.1553332,40.3160001 46.178,40.292 C46.2006668,40.2679999 46.2259999,40.2506667 46.254,40.24 C46.2820001,40.2293333 46.3133332,40.2226667 46.348,40.22 C46.3826668,40.2173333 46.4239998,40.216 46.472,40.216 L47.284,40.216 L47.284,46 L46.336,46 L46.336,42.264 C46.336,42.1946663 46.338,42.1186671 46.342,42.036 C46.346,41.9533329 46.352,41.8693338 46.36,41.784 L44.612,45.064 C44.5719998,45.138667 44.5200003,45.1966665 44.456,45.238 C44.3919997,45.2793335 44.3173338,45.3 44.232,45.3 L44.084,45.3 C43.9986662,45.3 43.9240003,45.2793335 43.86,45.238 C43.7959997,45.1966665 43.7440002,45.138667 43.704,45.064 L41.932,41.772 C41.9426667,41.8600004 41.95,41.9459996 41.954,42.03 C41.958,42.1140004 41.96,42.1919996 41.96,42.264 L41.96,46 L41.012,46 L41.012,40.216 L41.824,40.216 C41.8720002,40.216 41.9133332,40.2173333 41.948,40.22 C41.9826668,40.2226667 42.0139999,40.2293333 42.042,40.24 C42.0700001,40.2506667 42.0959999,40.2679999 42.12,40.292 C42.1440001,40.3160001 42.1666666,40.3479998 42.188,40.388 L43.916,43.6 Z M52.1,40.216 L52.1,41.072 L49.536,41.072 L49.536,42.676 L51.556,42.676 L51.556,43.504 L49.536,43.504 L49.536,45.14 L52.1,45.14 L52.1,46 L48.452,46 L48.452,40.216 L52.1,40.216 Z M53.596,40.216 C53.6440002,40.216 53.6839998,40.218 53.716,40.222 C53.7480002,40.226 53.7766665,40.2339999 53.802,40.246 C53.8273335,40.2580001 53.8519999,40.2753332 53.876,40.298 C53.9000001,40.3206668 53.9266665,40.3506665 53.956,40.388 L56.992,44.256 C56.9813333,44.1626662 56.974,44.0713338 56.97,43.982 C56.966,43.8926662 56.964,43.8093337 56.964,43.732 L56.964,40.216 L57.912,40.216 L57.912,46 L57.356,46 C57.2706662,46 57.2000003,45.9866668 57.144,45.96 C57.0879997,45.9333332 57.0333336,45.8853337 56.98,45.816 L53.956,41.964 C53.964,42.0493338 53.97,42.1339996 53.974,42.218 C53.978,42.3020004 53.98,42.3786663 53.98,42.448 L53.98,46 L53.032,46 L53.032,40.216 L53.596,40.216 Z M63.156,40.216 L63.156,41.1 L61.416,41.1 L61.416,46 L60.34,46 L60.34,41.1 L58.592,41.1 L58.592,40.216 L63.156,40.216 Z M13.684,51.268 C13.6546665,51.326667 13.6206669,51.3679999 13.582,51.392 C13.5433331,51.4160001 13.4973336,51.428 13.444,51.428 C13.3906664,51.428 13.330667,51.4073335 13.264,51.366 C13.197333,51.3246665 13.1186671,51.2786669 13.028,51.228 C12.9373329,51.1773331 12.8313339,51.1313335 12.71,51.09 C12.5886661,51.0486665 12.4453342,51.028 12.28,51.028 C12.1306659,51.028 12.0006672,51.0459998 11.89,51.082 C11.7793328,51.1180002 11.6860004,51.1679997 11.61,51.232 C11.5339996,51.2960003 11.4773335,51.3726662 11.44,51.462 C11.4026665,51.5513338 11.384,51.6493328 11.384,51.756 C11.384,51.8920007 11.4219996,52.0053329 11.498,52.096 C11.5740004,52.1866671 11.674666,52.2639997 11.8,52.328 C11.925334,52.3920003 12.0679992,52.4493331 12.228,52.5 C12.3880008,52.5506669 12.5513325,52.6046664 12.718,52.662 C12.8846675,52.7193336 13.0479992,52.7859996 13.208,52.862 C13.3680008,52.9380004 13.510666,53.0339994 13.636,53.15 C13.761334,53.2660006 13.8619996,53.4079992 13.938,53.576 C14.0140004,53.7440008 14.052,53.9479988 14.052,54.188 C14.052,54.4493346 14.0073338,54.6939989 13.918,54.922 C13.8286662,55.1500011 13.6980009,55.3486658 13.526,55.518 C13.3539991,55.6873342 13.1440012,55.8206662 12.896,55.918 C12.6479988,56.0153338 12.3640016,56.064 12.044,56.064 C11.8599991,56.064 11.6786676,56.0460002 11.5,56.01 C11.3213324,55.9739998 11.1500008,55.922667 10.986,55.856 C10.8219992,55.789333 10.6686674,55.7093338 10.526,55.616 C10.3833326,55.5226662 10.2560006,55.4186672 10.144,55.304 L10.456,54.788 C10.4853335,54.7506665 10.5206665,54.7193335 10.562,54.694 C10.6033335,54.6686665 10.6493331,54.656 10.7,54.656 C10.766667,54.656 10.8386663,54.6833331 10.916,54.738 C10.9933337,54.7926669 11.0846661,54.853333 11.19,54.92 C11.2953339,54.986667 11.4193326,55.0473331 11.562,55.102 C11.7046674,55.1566669 11.875999,55.184 12.076,55.184 C12.3826682,55.184 12.6199992,55.1113341 12.788,54.966 C12.9560008,54.8206659 13.04,54.6120014 13.04,54.34 C13.04,54.1879992 13.0020004,54.0640005 12.926,53.968 C12.8499996,53.8719995 12.749334,53.7913337 12.624,53.726 C12.498666,53.6606663 12.3560008,53.6053336 12.196,53.56 C12.0359992,53.5146664 11.8733342,53.4653336 11.708,53.412 C11.5426658,53.3586664 11.3800008,53.294667 11.22,53.22 C11.0599992,53.145333 10.917334,53.0480006 10.792,52.928 C10.666666,52.8079994 10.5660004,52.6580009 10.49,52.478 C10.4139996,52.2979991 10.376,52.0760013 10.376,51.812 C10.376,51.6013323 10.4179996,51.396001 10.502,51.196 C10.5860004,50.995999 10.7086659,50.8186674 10.87,50.664 C11.0313341,50.5093326 11.2293322,50.3853338 11.464,50.292 C11.6986678,50.1986662 11.9666652,50.152 12.268,50.152 C12.609335,50.152 12.9239986,50.2053328 13.212,50.312 C13.5000014,50.4186672 13.7453323,50.567999 13.948,50.76 L13.684,51.268 Z M18.524,50.216 L18.524,51.072 L15.96,51.072 L15.96,52.676 L17.98,52.676 L17.98,53.504 L15.96,53.504 L15.96,55.14 L18.524,55.14 L18.524,56 L14.876,56 L14.876,50.216 L18.524,50.216 Z M20.568,53.74 L20.568,56 L19.492,56 L19.492,50.216 L21.256,50.216 C21.6506686,50.216 21.9886653,50.2566663 22.27,50.338 C22.5513347,50.4193337 22.7819991,50.5333326 22.962,50.68 C23.1420009,50.8266674 23.2739996,51.001999 23.358,51.206 C23.4420004,51.410001 23.484,51.6346654 23.484,51.88 C23.484,52.0746676 23.4553336,52.2586658 23.398,52.432 C23.3406664,52.6053342 23.2580005,52.762666 23.15,52.904 C23.0419995,53.045334 22.9086675,53.1693328 22.75,53.276 C22.5913325,53.3826672 22.4106677,53.4679997 22.208,53.532 C22.3440007,53.6093337 22.4613328,53.7199993 22.56,53.864 L24.008,56 L23.04,56 C22.9466662,56 22.8673337,55.9813335 22.802,55.944 C22.7366663,55.9066665 22.6813336,55.8533337 22.636,55.784 L21.42,53.932 C21.3746664,53.8626663 21.3246669,53.8133335 21.27,53.784 C21.2153331,53.7546665 21.1346672,53.74 21.028,53.74 L20.568,53.74 Z M20.568,52.968 L21.24,52.968 C21.4426677,52.968 21.6193326,52.9426669 21.77,52.892 C21.9206674,52.8413331 22.0446662,52.7713338 22.142,52.682 C22.2393338,52.5926662 22.3119998,52.4866673 22.36,52.364 C22.4080002,52.2413327 22.432,52.1066674 22.432,51.96 C22.432,51.6666652 22.3353343,51.4413341 22.142,51.284 C21.9486657,51.1266659 21.6533353,51.048 21.256,51.048 L20.568,51.048 L20.568,52.968 Z M24.128,50.216 L24.996,50.216 C25.0893338,50.216 25.165333,50.2386664 25.224,50.284 C25.282667,50.3293336 25.3266665,50.3879996 25.356,50.46 L26.716,53.988 C26.7613336,54.1026672 26.8046665,54.228666 26.846,54.366 C26.8873335,54.503334 26.9266665,54.6479992 26.964,54.8 C27.0253336,54.4933318 27.1013329,54.2226678 27.192,53.988 L28.548,50.46 C28.5720001,50.3986664 28.6146664,50.3426669 28.676,50.292 C28.7373336,50.2413331 28.8133329,50.216 28.904,50.216 L29.772,50.216 L27.436,56 L26.464,56 L24.128,50.216 Z M31.588,56 L30.508,56 L30.508,50.216 L31.588,50.216 L31.588,56 Z M36.864,54.636 C36.922667,54.636 36.9733331,54.6586664 37.016,54.704 L37.44,55.164 C37.2053322,55.4546681 36.9166684,55.6773326 36.574,55.832 C36.2313316,55.9866674 35.8200024,56.064 35.34,56.064 C34.9106645,56.064 34.5246684,55.9906674 34.182,55.844 C33.8393316,55.6973326 33.5466679,55.4933346 33.304,55.232 C33.0613321,54.9706654 32.875334,54.6586685 32.746,54.296 C32.616666,53.9333315 32.552,53.5373355 32.552,53.108 C32.552,52.6733312 32.6239993,52.2753351 32.768,51.914 C32.9120007,51.5526649 33.1146654,51.2413346 33.376,50.98 C33.6373346,50.7186654 33.9499982,50.5153341 34.314,50.37 C34.6780018,50.2246659 35.0799978,50.152 35.52,50.152 C35.9493355,50.152 36.3246651,50.220666 36.646,50.358 C36.9673349,50.495334 37.2426655,50.6773322 37.472,50.904 L37.112,51.404 C37.0906666,51.4360002 37.0633335,51.4639999 37.03,51.488 C36.9966665,51.5120001 36.950667,51.524 36.892,51.524 C36.8306664,51.524 36.7680003,51.5000002 36.704,51.452 C36.6399997,51.4039998 36.5586672,51.3520003 36.46,51.296 C36.3613328,51.2399997 36.2366674,51.1880002 36.086,51.14 C35.9353326,51.0919998 35.7440012,51.068 35.512,51.068 C35.2399986,51.068 34.9900011,51.1153329 34.762,51.21 C34.5339989,51.3046671 34.3380008,51.4399991 34.174,51.616 C34.0099992,51.7920009 33.8820005,52.0059987 33.79,52.258 C33.6979995,52.5100013 33.652,52.7933318 33.652,53.108 C33.652,53.433335 33.6979995,53.7226654 33.79,53.976 C33.8820005,54.2293346 34.0066659,54.4426658 34.164,54.616 C34.3213341,54.7893342 34.5066656,54.9219995 34.72,55.014 C34.9333344,55.1060005 35.1626654,55.152 35.408,55.152 C35.5546674,55.152 35.6873327,55.1440001 35.806,55.128 C35.9246673,55.1119999 36.0339995,55.0866668 36.134,55.052 C36.2340005,55.0173332 36.3286662,54.9726669 36.418,54.918 C36.5073338,54.8633331 36.5959996,54.7960004 36.684,54.716 C36.7106668,54.6919999 36.7386665,54.6726667 36.768,54.658 C36.7973335,54.6433333 36.8293332,54.636 36.864,54.636 Z M41.9,50.216 L41.9,51.072 L39.336,51.072 L39.336,52.676 L41.356,52.676 L41.356,53.504 L39.336,53.504 L39.336,55.14 L41.9,55.14 L41.9,56 L38.252,56 L38.252,50.216 L41.9,50.216 Z" id="DEVICE-MANAGMENT-SER" fill="#FFFFFF"></path>
        </g>
        <g id="Polygon-+-Polygon-+-Polygon-+-Polygon-+-Polygon-+-Polygon-+-Polygon-+-Polygon-+-Polygon-+-Polygon-+-Polygon-+-Polygon-+-Polygon-Mask" transform="translate(40.000000, 80.000000)">
            <mask id="mask-2" fill="white">
                <use xlink:href="#path-1"></use>
            </mask>
            <path stroke="#FAAE42" stroke-width="6" d="M69.894542,168.165616 C81.7039192,142.535965 94.5826041,124.758763 108.642088,114.855091 C122.630012,105.001827 142.315361,99.7437616 167.670935,98.9816691 C182.582265,31.1795581 226.037059,-3 297.297512,-3 C368.807149,-3 409.129102,36.4884421 417.577311,114.515638 C470.024642,119.051948 500.549195,144.292255 508.37998,189.876696 C516.31753,236.082635 495.096911,273.803137 445.257155,302.597636 L444.560712,303 L52.0253952,303 L51.5261473,302.817324 C11.7442926,288.261024 -6.4655887,262.012644 -2.45728659,224.679741 C1.51547009,187.677904 25.993808,168.703525 69.894542,168.165616 Z"></path>
            <mask id="mask-5" fill="white">
                <use xlink:href="#path-3"></use>
            </mask>
            <g id="Mask" stroke="#555854" mask="url(#mask-4)" stroke-width="4" opacity="0.4" stroke-dasharray="5">
                <use mask="url(#mask-6)" xlink:href="#path-3"></use>
            </g>
            <path d="M424.209836,278.689554 L455.525621,296.677329 C457.388517,297.747375 458.537142,299.731772 458.537142,301.880116 L458.537142,337.802519 C458.537142,339.950863 457.388517,341.935259 455.525621,343.005306 L424.209836,360.99308 C422.359294,362.056031 420.08342,362.056031 418.232878,360.99308 L386.917094,343.005306 C385.054198,341.935259 383.905573,339.950863 383.905573,337.802519 L383.905573,301.880116 C383.905573,299.731772 385.054198,297.747375 386.917094,296.677329 L418.232878,278.689554 C420.08342,277.626604 422.359294,277.626604 424.209836,278.689554 Z" id="Polygon" stroke="#555854" opacity="0.16" mask="url(#mask-5)"></path>
            <path d="M328.209836,279.689554 L359.525621,297.677329 C361.388517,298.747375 362.537142,300.731772 362.537142,302.880116 L362.537142,338.802519 C362.537142,340.950863 361.388517,342.935259 359.525621,344.005306 L328.209836,361.99308 C326.359294,363.056031 324.08342,363.056031 322.232878,361.99308 L290.917094,344.005306 C289.054198,342.935259 287.905573,340.950863 287.905573,338.802519 L287.905573,302.880116 C287.905573,300.731772 289.054198,298.747375 290.917094,297.677329 L322.232878,279.689554 C324.08342,278.626604 326.359294,278.626604 328.209836,279.689554 Z" id="Polygon" stroke="#555854" opacity="0.16" mask="url(#mask-5)"></path>
            <path d="M234.209836,279.689554 L265.525621,297.677329 C267.388517,298.747375 268.537142,300.731772 268.537142,302.880116 L268.537142,338.802519 C268.537142,340.950863 267.388517,342.935259 265.525621,344.005306 L234.209836,361.99308 C232.359294,363.056031 230.08342,363.056031 228.232878,361.99308 L196.917094,344.005306 C195.054198,342.935259 193.905573,340.950863 193.905573,338.802519 L193.905573,302.880116 C193.905573,300.731772 195.054198,298.747375 196.917094,297.677329 L228.232878,279.689554 C230.08342,278.626604 232.359294,278.626604 234.209836,279.689554 Z" id="Polygon" stroke="#555854" opacity="0.16" mask="url(#mask-5)"></path>
            <path d="M139.209836,279.689554 L170.525621,297.677329 C172.388517,298.747375 173.537142,300.731772 173.537142,302.880116 L173.537142,338.802519 C173.537142,340.950863 172.388517,342.935259 170.525621,344.005306 L139.209836,361.99308 C137.359294,363.056031 135.08342,363.056031 133.232878,361.99308 L101.917094,344.005306 C100.054198,342.935259 98.9055728,340.950863 98.9055728,338.802519 L98.9055728,302.880116 C98.9055728,300.731772 100.054198,298.747375 101.917094,297.677329 L133.232878,279.689554 C135.08342,278.626604 137.359294,278.626604 139.209836,279.689554 Z" id="Polygon" stroke="#555854" opacity="0.16" mask="url(#mask-5)"></path>
            <path d="M44.2098362,279.689554 L75.5256207,297.677329 C77.3885169,298.747375 78.5371418,300.731772 78.5371418,302.880116 L78.5371418,338.802519 C78.5371418,340.950863 77.3885169,342.935259 75.5256207,344.005306 L44.2098362,361.99308 C42.3592944,363.056031 40.0834202,363.056031 38.2328784,361.99308 L6.91709386,344.005306 C5.05419772,342.935259 3.90557276,340.950863 3.90557276,338.802519 L3.90557276,302.880116 C3.90557276,300.731772 5.05419772,298.747375 6.91709386,297.677329 L38.2328784,279.689554 C40.0834202,278.626604 42.3592944,278.626604 44.2098362,279.689554 Z" id="Polygon" stroke="#555854" opacity="0.16" mask="url(#mask-5)"></path>
            <path d="M41.3042634,107.689554 L72.620048,125.677329 C74.4829441,126.747375 75.6315691,128.731772 75.6315691,130.880116 L75.6315691,166.802519 C75.6315691,168.950863 74.4829441,170.935259 72.620048,172.005306 L41.3042634,189.99308 C39.4537216,191.056031 37.1778475,191.056031 35.3273056,189.99308 L4.0115211,172.005306 C2.14862496,170.935259 1,168.950863 1,166.802519 L1,130.880116 C1,128.731772 2.14862496,126.747375 4.0115211,125.677329 L35.3273056,107.689554 C37.1778475,106.626604 39.4537216,106.626604 41.3042634,107.689554 Z" id="Polygon" stroke="#555854" opacity="0.16" mask="url(#mask-5)"></path>
            <path d="M-6.15394089,199.770635 L25.1618437,217.75841 C27.0247398,218.828456 28.1733648,220.812853 28.1733648,222.961197 L28.1733648,258.8836 C28.1733648,261.031944 27.0247398,263.01634 25.1618437,264.086387 L-6.15394089,282.074161 C-8.00448271,283.137112 -10.2803569,283.137112 -12.1308987,282.074161 L-43.4466832,264.086387 C-45.3095794,263.01634 -46.4582043,261.031944 -46.4582043,258.8836 L-46.4582043,222.961197 C-46.4582043,220.812853 -45.3095794,218.828456 -43.4466832,217.75841 L-12.1308987,199.770635 C-10.2803569,198.707685 -8.00448271,198.707685 -6.15394089,199.770635 Z" id="Polygon" stroke="#555854" opacity="0.16" mask="url(#mask-5)"></path>
            <path d="M328.369289,-61.2834189 L359.685073,-43.2956444 C361.547969,-42.2255976 362.696594,-40.2412014 362.696594,-38.0928573 L362.696594,-2.17045425 C362.696594,-0.0221101873 361.547969,1.96228605 359.685073,3.03233287 L328.369289,21.0201073 C326.518747,22.0830578 324.242873,22.0830578 322.392331,21.0201073 L291.076546,3.03233287 C289.21365,1.96228605 288.065025,-0.0221101873 288.065025,-2.17045425 L288.065025,-38.0928573 C288.065025,-40.2412014 289.21365,-42.2255976 291.076546,-43.2956444 L322.392331,-61.2834189 C324.242873,-62.3463694 326.518747,-62.3463694 328.369289,-61.2834189 Z" id="Polygon" stroke="#555854" opacity="0.16" mask="url(#mask-5)"></path>
            <path d="M233.369289,-61.2834189 L264.685073,-43.2956444 C266.547969,-42.2255976 267.696594,-40.2412014 267.696594,-38.0928573 L267.696594,-2.17045425 C267.696594,-0.0221101873 266.547969,1.96228605 264.685073,3.03233287 L233.369289,21.0201073 C231.518747,22.0830578 229.242873,22.0830578 227.392331,21.0201073 L196.076546,3.03233287 C194.21365,1.96228605 193.065025,-0.0221101873 193.065025,-2.17045425 L193.065025,-38.0928573 C193.065025,-40.2412014 194.21365,-42.2255976 196.076546,-43.2956444 L227.392331,-61.2834189 C229.242873,-62.3463694 231.518747,-62.3463694 233.369289,-61.2834189 Z" id="Polygon" stroke="#555854" opacity="0.16" mask="url(#mask-5)"></path>
            <path d="M187.369289,21.7165811 L218.685073,39.7043556 C220.547969,40.7744024 221.696594,42.7587986 221.696594,44.9071427 L221.696594,80.8295457 C221.696594,82.9778898 220.547969,84.9622861 218.685073,86.0323329 L187.369289,104.020107 C185.518747,105.083058 183.242873,105.083058 181.392331,104.020107 L150.076546,86.0323329 C148.21365,84.9622861 147.065025,82.9778898 147.065025,80.8295457 L147.065025,44.9071427 C147.065025,42.7587986 148.21365,40.7744024 150.076546,39.7043556 L181.392331,21.7165811 C183.242873,20.6536306 185.518747,20.6536306 187.369289,21.7165811 Z" id="Polygon" stroke="#555854" opacity="0.0741604478" mask="url(#mask-5)"></path>
            <path d="M281.369289,23.7165811 L312.685073,41.7043556 C314.547969,42.7744024 315.696594,44.7587986 315.696594,46.9071427 L315.696594,82.8295457 C315.696594,84.9778898 314.547969,86.9622861 312.685073,88.0323329 L281.369289,106.020107 C279.518747,107.083058 277.242873,107.083058 275.392331,106.020107 L244.076546,88.0323329 C242.21365,86.9622861 241.065025,84.9778898 241.065025,82.8295457 L241.065025,46.9071427 C241.065025,44.7587986 242.21365,42.7744024 244.076546,41.7043556 L275.392331,23.7165811 C277.242873,22.6536306 279.518747,22.6536306 281.369289,23.7165811 Z" id="Polygon" stroke="#555854" opacity="0.0741604478" mask="url(#mask-5)"></path>
            <path d="M473.127793,191.230095 L504.443577,209.217869 C506.306474,210.287916 507.455099,212.272312 507.455099,214.420656 L507.455099,250.343059 C507.455099,252.491403 506.306474,254.4758 504.443577,255.545846 L473.127793,273.533621 C471.277251,274.596571 469.001377,274.596571 467.150835,273.533621 L435.835051,255.545846 C433.972154,254.4758 432.823529,252.491403 432.823529,250.343059 L432.823529,214.420656 C432.823529,212.272312 433.972154,210.287916 435.835051,209.217869 L467.150835,191.230095 C469.001377,190.167144 471.277251,190.167144 473.127793,191.230095 Z" id="Polygon" stroke="#555854" opacity="0.16" mask="url(#mask-5)"></path>
            <path d="M523.209836,106.689554 L554.525621,124.677329 C556.388517,125.747375 557.537142,127.731772 557.537142,129.880116 L557.537142,165.802519 C557.537142,167.950863 556.388517,169.935259 554.525621,171.005306 L523.209836,188.99308 C521.359294,190.056031 519.08342,190.056031 517.232878,188.99308 L485.917094,171.005306 C484.054198,169.935259 482.905573,167.950863 482.905573,165.802519 L482.905573,129.880116 C482.905573,127.731772 484.054198,125.747375 485.917094,124.677329 L517.232878,106.689554 C519.08342,105.626604 521.359294,105.626604 523.209836,106.689554 Z" id="Polygon" stroke="#555854" opacity="0.16" mask="url(#mask-5)"></path>
            <path d="M376.369289,22.7165811 L407.685073,40.7043556 C409.547969,41.7744024 410.696594,43.7587986 410.696594,45.9071427 L410.696594,81.8295457 C410.696594,83.9778898 409.547969,85.9622861 407.685073,87.0323329 L376.369289,105.020107 C374.518747,106.083058 372.242873,106.083058 370.392331,105.020107 L339.076546,87.0323329 C337.21365,85.9622861 336.065025,83.9778898 336.065025,81.8295457 L336.065025,45.9071427 C336.065025,43.7587986 337.21365,41.7744024 339.076546,40.7043556 L370.392331,22.7165811 C372.242873,21.6536306 374.518747,21.6536306 376.369289,22.7165811 Z" id="Polygon" stroke="#555854" opacity="0.16" mask="url(#mask-5)"></path>
            <path d="M186.846059,191.770635 L218.161844,209.75841 C220.02474,210.828456 221.173365,212.812853 221.173365,214.961197 L221.173365,250.8836 C221.173365,253.031944 220.02474,255.01634 218.161844,256.086387 L186.846059,274.074161 C184.995517,275.137112 182.719643,275.137112 180.869101,274.074161 L149.553317,256.086387 C147.690421,255.01634 146.541796,253.031944 146.541796,250.8836 L146.541796,214.961197 C146.541796,212.812853 147.690421,210.828456 149.553317,209.75841 L180.869101,191.770635 C182.719643,190.707685 184.995517,190.707685 186.846059,191.770635 Z" id="Polygon" stroke="#555854" opacity="0.16" mask="url(#mask-5)"></path>
            <path d="M90.8460591,191.770635 L122.161844,209.75841 C124.02474,210.828456 125.173365,212.812853 125.173365,214.961197 L125.173365,250.8836 C125.173365,253.031944 124.02474,255.01634 122.161844,256.086387 L90.8460591,274.074161 C88.9955173,275.137112 86.7196431,275.137112 84.8691013,274.074161 L53.5533168,256.086387 C51.6904206,255.01634 50.5417957,253.031944 50.5417957,250.8836 L50.5417957,214.961197 C50.5417957,212.812853 51.6904206,210.828456 53.5533168,209.75841 L84.8691013,191.770635 C86.7196431,190.707685 88.9955173,190.707685 90.8460591,191.770635 Z" id="Polygon" stroke="#555854" opacity="0.16" mask="url(#mask-5)"></path>
            <path d="M139.304263,108.689554 L170.620048,126.677329 C172.482944,127.747375 173.631569,129.731772 173.631569,131.880116 L173.631569,167.802519 C173.631569,169.950863 172.482944,171.935259 170.620048,173.005306 L139.304263,190.99308 C137.453722,192.056031 135.177847,192.056031 133.327306,190.99308 L102.011521,173.005306 C100.148625,171.935259 99,169.950863 99,167.802519 L99,131.880116 C99,129.731772 100.148625,127.747375 102.011521,126.677329 L133.327306,108.689554 C135.177847,107.626604 137.453722,107.626604 139.304263,108.689554 Z" id="Polygon" stroke="#555854" opacity="0.16" mask="url(#mask-5)"></path>
            <path d="M377.127793,191.230095 L408.443577,209.217869 C410.306474,210.287916 411.455099,212.272312 411.455099,214.420656 L411.455099,250.343059 C411.455099,252.491403 410.306474,254.4758 408.443577,255.545846 L377.127793,273.533621 C375.277251,274.596571 373.001377,274.596571 371.150835,273.533621 L339.835051,255.545846 C337.972154,254.4758 336.823529,252.491403 336.823529,250.343059 L336.823529,214.420656 C336.823529,212.272312 337.972154,210.287916 339.835051,209.217869 L371.150835,191.230095 C373.001377,190.167144 375.277251,190.167144 377.127793,191.230095 Z" id="Polygon" stroke="#555854" opacity="0.16" mask="url(#mask-5)"></path>
            <path d="M424.209836,106.689554 L455.525621,124.677329 C457.388517,125.747375 458.537142,127.731772 458.537142,129.880116 L458.537142,165.802519 C458.537142,167.950863 457.388517,169.935259 455.525621,171.005306 L424.209836,188.99308 C422.359294,190.056031 420.08342,190.056031 418.232878,188.99308 L386.917094,171.005306 C385.054198,169.935259 383.905573,167.950863 383.905573,165.802519 L383.905573,129.880116 C383.905573,127.731772 385.054198,125.747375 386.917094,124.677329 L418.232878,106.689554 C420.08342,105.626604 422.359294,105.626604 424.209836,106.689554 Z" id="Polygon" stroke="#555854" opacity="0.16" mask="url(#mask-5)"></path>
        </g>
    </g>
</svg>